<svg width="24" height="24" viewBox="0 0 24 24" fill="none" xmlns="http://www.w3.org/2000/svg">
<path d="M14.61 2.47001L14.533 2.40301C14.3888 2.2932 14.2097 2.23947 14.0289 2.25179C13.8481 2.26412 13.6779 2.34166 13.55 2.47001L13.482 2.54801C13.3726 2.69316 13.3193 2.87289 13.3318 3.0542C13.3443 3.2355 13.4218 3.40622 13.55 3.53501L15.521 5.51201H8.5L8.267 5.51601C4.785 5.63901 2 8.51001 2 12.036C2 13.726 2.64 15.266 3.692 16.426L3.764 16.495C3.90549 16.616 4.0869 16.6802 4.27301 16.675C4.45913 16.6698 4.63669 16.5957 4.77124 16.467C4.90579 16.3383 4.98774 16.1642 5.00118 15.9785C5.01463 15.7928 4.95861 15.6087 4.844 15.462L4.644 15.231C3.9023 14.3313 3.49772 13.201 3.5 12.035C3.5 9.26401 5.739 7.01701 8.5 7.01701H15.381L13.549 8.85701L13.482 8.93501C13.3726 9.08016 13.3193 9.25989 13.3318 9.4412C13.3443 9.6225 13.4218 9.79322 13.55 9.92201C13.6195 9.99179 13.7021 10.0472 13.793 10.0849C13.884 10.1227 13.9815 10.1422 14.08 10.1422C14.1785 10.1422 14.276 10.1227 14.367 10.0849C14.4579 10.0472 14.5405 9.99179 14.61 9.92201L17.792 6.72901L17.859 6.65101C17.9685 6.50597 18.022 6.32631 18.0097 6.145C17.9974 5.9637 17.9201 5.79292 17.792 5.66401L14.61 2.47001ZM20.23 7.57101C20.0852 7.45136 19.9008 7.39032 19.7132 7.39994C19.5256 7.40955 19.3484 7.48912 19.2166 7.62295C19.0848 7.75677 19.0079 7.93514 19.0011 8.12286C18.9944 8.31058 19.0582 8.49402 19.18 8.63701C20.0311 9.56373 20.5023 10.7768 20.5 12.035C20.5 14.807 18.261 17.054 15.5 17.054H8.558L10.463 15.143L10.537 15.057C10.6331 14.9259 10.6843 14.7674 10.683 14.6048C10.6818 14.4423 10.6281 14.2846 10.53 14.155L10.463 14.078L10.379 14.005C10.2487 13.9082 10.0904 13.8564 9.928 13.8575C9.76564 13.8586 9.60804 13.9125 9.479 14.011L9.403 14.078L6.221 17.272L6.148 17.357C6.05179 17.488 6.00041 17.6465 6.00149 17.809C6.00257 17.9715 6.05606 18.1293 6.154 18.259L6.221 18.336L9.403 21.53L9.487 21.602C9.78 21.822 10.197 21.797 10.463 21.529C10.5912 21.4002 10.6687 21.2295 10.6812 21.0482C10.6937 20.8669 10.6404 20.6872 10.531 20.542L10.463 20.465L8.564 18.559H15.5L15.733 18.555C19.215 18.432 22 15.56 22 12.035C22.0026 10.4096 21.3973 8.84192 20.303 7.64001L20.23 7.57101Z" fill="black"/>
</svg>
