<svg width="24" height="24" viewBox="0 0 24 24" fill="none" xmlns="http://www.w3.org/2000/svg">
<path d="M14.0625 12.5C14.0625 13.3643 13.3643 14.0625 12.5 14.0625C11.6357 14.0625 10.9375 13.3643 10.9375 12.5C10.9375 11.6357 11.6357 10.9375 12.5 10.9375C13.3643 10.9375 14.0625 11.6357 14.0625 12.5ZM0 12.5C0 5.5957 5.5957 0 12.5 0C19.4043 0 25 5.5957 25 12.5C25 19.4043 19.4043 25 12.5 25C5.5957 25 0 19.4043 0 12.5ZM15.874 14.9756L18.584 7.92969C18.9502 6.93848 18.0176 6.0498 17.0703 6.41602L10.0244 9.12598C9.60938 9.28223 9.28223 9.60938 9.12598 10.0244L6.41602 17.0703C6.0498 18.0176 6.93848 18.9502 7.92969 18.584L14.9756 15.874C15.3906 15.7178 15.7178 15.3906 15.874 14.9756Z" fill="black"/>
</svg>
