<svg width="26" height="26" viewBox="0 0 26 26" fill="none" xmlns="http://www.w3.org/2000/svg">
<path d="M14.5145 1.18127C14.1196 -0.394978 11.882 -0.394978 11.4855 1.18127L11.3701 1.64602C11.3026 1.91611 11.164 2.16321 10.9688 2.36168C10.7736 2.56016 10.5288 2.70277 10.2599 2.77473C9.99093 2.84669 9.70764 2.84537 9.43939 2.77091C9.17114 2.69645 8.9277 2.55156 8.73433 2.35127L8.40121 2.0084C7.27183 0.840022 5.33321 1.95965 5.78008 3.52127L5.91008 3.98277C5.98647 4.25016 5.99 4.5331 5.9203 4.80231C5.85059 5.07152 5.7102 5.3172 5.51365 5.51392C5.31709 5.71064 5.07153 5.85124 4.80238 5.92117C4.53323 5.9911 4.25028 5.98781 3.98283 5.91165L3.52133 5.78002C1.96133 5.33315 0.840083 7.27177 2.00846 8.40115L2.35133 8.73427C2.55162 8.92764 2.69651 9.17107 2.77097 9.43933C2.84543 9.70758 2.84675 9.99087 2.7748 10.2598C2.70284 10.5287 2.56022 10.7735 2.36175 10.9687C2.16327 11.164 1.91617 11.3025 1.64608 11.37L1.18133 11.4854C-0.394917 11.8803 -0.394917 14.1179 1.18133 14.5144L1.64608 14.6298C1.91617 14.6973 2.16327 14.8358 2.36175 15.0311C2.56022 15.2263 2.70284 15.4711 2.7748 15.74C2.84675 16.0089 2.84543 16.2922 2.77097 16.5605C2.69651 16.8287 2.55162 17.0722 2.35133 17.2655L2.00846 17.5986C0.840083 18.728 1.95971 20.6666 3.52133 20.2198L3.98283 20.0898C4.25039 20.0132 4.53354 20.0097 4.80294 20.0794C5.07234 20.1492 5.31817 20.2898 5.51495 20.4865C5.71173 20.6833 5.85228 20.9291 5.92205 21.1985C5.99181 21.4679 5.98824 21.7511 5.91171 22.0186L5.78008 22.4785C5.33321 24.0385 7.27183 25.1598 8.40121 23.9914L8.73433 23.6485C8.9277 23.4482 9.17114 23.3033 9.43939 23.2289C9.70764 23.1544 9.99093 23.1531 10.2599 23.2251C10.5288 23.297 10.7736 23.4396 10.9688 23.6381C11.164 23.8366 11.3026 24.0837 11.3701 24.3538L11.4855 24.8185C11.8803 26.3948 14.118 26.3948 14.5145 24.8185L14.6298 24.3538C14.6973 24.0837 14.8359 23.8366 15.0311 23.6381C15.2263 23.4396 15.4711 23.297 15.74 23.2251C16.009 23.1531 16.2923 23.1544 16.5605 23.2289C16.8288 23.3033 17.0722 23.4482 17.2656 23.6485L17.5987 23.9914C18.7281 25.1598 20.6667 24.0401 20.2198 22.4785L20.0898 22.017C20.0133 21.7495 20.0097 21.4663 20.0795 21.1969C20.1493 20.9275 20.2898 20.6817 20.4866 20.4849C20.6834 20.2881 20.9292 20.1476 21.1986 20.0778C21.468 20.008 21.7512 20.0116 22.0187 20.0881L22.4786 20.2198C24.0386 20.6666 25.1598 18.728 23.9915 17.5986L23.6486 17.2655C23.4483 17.0722 23.3034 16.8287 23.2289 16.5605C23.1545 16.2922 23.1532 16.0089 23.2251 15.74C23.2971 15.4711 23.4397 15.2263 23.6382 15.0311C23.8366 14.8358 24.0837 14.6973 24.3538 14.6298L24.8186 14.5144C26.3948 14.1195 26.3948 11.8819 24.8186 11.4854L24.3538 11.37C24.0837 11.3025 23.8366 11.164 23.6382 10.9687C23.4397 10.7735 23.2971 10.5287 23.2251 10.2598C23.1532 9.99087 23.1545 9.70758 23.2289 9.43933C23.3034 9.17107 23.4483 8.92764 23.6486 8.73427L23.9915 8.40115C25.1598 7.27177 24.0402 5.33315 22.4786 5.78002L22.0171 5.91002C21.7497 5.98641 21.4668 5.98994 21.1975 5.92023C20.9283 5.85053 20.6827 5.71014 20.4859 5.51359C20.2892 5.31703 20.1486 5.07147 20.0787 4.80232C20.0088 4.53317 20.012 4.25022 20.0882 3.98277L20.2198 3.52127C20.6667 1.96127 18.7281 0.840022 17.5987 2.0084L17.2656 2.35127C17.0722 2.55156 16.8288 2.69645 16.5605 2.77091C16.2923 2.84537 16.009 2.84669 15.74 2.77473C15.4711 2.70277 15.2263 2.56016 15.0311 2.36168C14.8359 2.16321 14.6973 1.91611 14.6298 1.64602L14.5145 1.18127ZM13 21.12C11.9238 21.1352 10.8554 20.9364 9.8568 20.5352C8.85818 20.1339 7.94927 19.5381 7.1829 18.7825C6.41652 18.0269 5.80797 17.1265 5.3926 16.1337C4.97723 15.1408 4.76333 14.0753 4.76333 12.9991C4.76333 11.9229 4.97723 10.8574 5.3926 9.86451C5.80797 8.87167 6.41652 7.97128 7.1829 7.21567C7.94927 6.46006 8.85818 5.8643 9.8568 5.46302C10.8554 5.06173 11.9238 4.86292 13 4.87815C15.154 4.87815 17.2198 5.73383 18.7429 7.25695C20.266 8.78008 21.1217 10.8459 21.1217 12.9999C21.1217 15.1539 20.266 17.2197 18.7429 18.7428C17.2198 20.266 15.154 21.1216 13 21.1216V21.12Z" fill="black"/>
</svg>
