<svg width="103" height="29" viewBox="0 0 103 29" fill="none" xmlns="http://www.w3.org/2000/svg">
<path d="M5.45722 0.179171C3.35557 1.04838 1.04552 3.50086 0.315867 6.58162C-0.608316 10.4837 3.23688 12.1343 3.55252 11.5939C3.92368 10.958 2.86351 10.7431 2.64524 8.71828C2.36319 6.10312 3.59457 3.18107 5.14439 1.89891C5.43207 1.66056 5.41859 1.99227 5.41859 2.60544C5.41859 3.70208 5.35723 13.547 5.35723 15.6016C5.35723 18.3816 5.24096 19.2596 5.03194 20.1272C4.82051 21.0061 4.48012 21.6002 4.73783 21.8291C5.0259 22.0849 6.25587 21.4761 6.96782 20.4951C7.82159 19.3184 8.12053 17.9049 8.17424 16.3705C8.23902 14.5205 8.23621 11.5847 8.23902 9.91026C8.24144 8.37465 8.26517 3.87786 8.21166 1.17451C8.19859 0.511082 6.33614 -0.184521 5.45722 0.179171V0.179171ZM80.0805 13.19C80.0127 14.6355 79.6886 15.7651 79.2865 16.562C78.5079 18.1048 76.8925 18.5836 76.2065 16.3661C75.8328 15.1573 75.8153 13.1384 76.0838 11.4514C76.3574 9.73309 77.1215 8.43524 78.3862 8.55223C79.6339 8.66803 80.2179 10.2553 80.0805 13.1902V13.19ZM59.048 22.1574C59.0311 24.5588 58.6483 26.6643 57.8275 27.2761C56.6631 28.1433 55.0982 27.4926 55.4223 25.7403C55.7089 24.1896 57.065 22.6059 59.0514 20.6709C59.0514 20.6709 59.0554 21.1122 59.048 22.1574ZM58.7301 13.1759C58.6589 14.4925 58.3133 15.8147 57.9361 16.562C57.1576 18.1048 55.5305 18.587 54.8562 16.3661C54.3951 14.8486 54.5055 12.8849 54.7335 11.6475C55.0296 10.042 55.7474 8.55243 57.0359 8.55243C58.2888 8.55243 58.9068 9.90967 58.7301 13.1759ZM46.5462 13.1561C46.4697 14.5501 46.1943 15.7154 45.7523 16.562C44.9525 18.0942 43.3701 18.5801 42.6724 16.3661C42.1693 14.7698 42.3405 12.5932 42.5497 11.4173C42.8603 9.6723 43.638 8.43524 44.8521 8.55243C46.0992 8.6728 46.7053 10.2553 46.5462 13.1561V13.1561ZM102.382 14.7844C102.077 14.7844 101.938 15.0947 101.823 15.6167C101.424 17.433 101.004 17.8428 100.463 17.8428C99.8585 17.8428 99.3154 16.9438 99.1755 15.1438C99.0659 13.7283 99.0836 11.1227 99.2238 8.53078C99.2526 7.99825 99.1037 7.47128 97.6571 6.95246C97.0347 6.7292 96.1298 6.40047 95.6792 7.47426C94.4064 10.5081 93.9083 12.9167 93.791 13.8948C93.7849 13.9454 93.722 13.956 93.7111 13.8376C93.6363 13.054 93.4695 11.6298 93.4486 8.63804C93.4446 8.05426 93.3194 7.55749 92.6668 7.15069C92.2434 6.88652 90.9577 6.41973 90.4948 6.9753C90.0936 7.42937 89.6289 8.65174 89.1463 10.1009C88.754 11.2788 88.4808 12.0753 88.4808 12.0753C88.4808 12.0753 88.4861 8.89765 88.4907 7.69216C88.4927 7.2375 88.1769 7.08594 88.0815 7.05853C87.653 6.93578 86.8081 6.73059 86.4496 6.73059C86.007 6.73059 85.8988 6.97451 85.8988 7.33045C85.8988 7.37713 85.829 11.5142 85.829 14.4071C85.829 14.5328 85.829 14.6698 85.8296 14.8156C85.585 16.1453 84.7913 17.95 83.9283 17.95C83.0641 17.95 82.6565 17.1956 82.6565 13.7468C82.6565 11.7349 82.7177 10.8599 82.7476 9.40475C82.7651 8.56653 82.7989 7.92297 82.7969 7.77697C82.7905 7.32906 82.0063 7.10322 81.6412 7.0198C81.2745 6.93578 80.9558 6.903 80.707 6.91711C80.3547 6.93697 80.1055 7.1648 80.1055 7.47863C80.1055 7.64707 80.1075 7.96687 80.1075 7.96687C79.6538 7.26292 78.9242 6.7731 78.4387 6.63108C77.1311 6.24772 75.7668 6.58738 74.7376 8.00937C73.9196 9.13898 73.4265 10.4188 73.2324 12.2571C73.0906 13.6012 73.1369 14.964 73.3891 16.1167C73.0844 17.4173 72.5189 17.95 71.8995 17.95C71.0002 17.95 70.3484 16.5012 70.4241 13.9949C70.4739 12.3465 70.8081 11.1896 71.1732 9.51598C71.3289 8.8025 71.2024 8.42908 70.8851 8.07115C70.594 7.74281 69.9738 7.57497 69.0826 7.78115C68.4477 7.92833 67.5399 8.08664 66.7092 8.2082C66.7092 8.2082 66.7595 8.01056 66.8006 7.66256C67.0166 5.83715 65.0075 5.98513 64.3664 6.56811C63.9839 6.91631 63.7234 7.32688 63.6246 8.06499C63.4677 9.23651 64.4354 9.7891 64.4354 9.7891C64.1181 11.224 63.3398 13.0983 62.5363 14.4535C62.106 15.1795 61.7769 15.7176 61.3518 16.2895C61.3379 13.9945 61.3531 11.6995 61.3973 9.40495C61.4148 8.56673 61.4488 7.94025 61.447 7.79406C61.4421 7.46671 61.2484 7.34277 60.8455 7.18625C60.489 7.04761 60.0677 6.95186 59.6306 6.9181C59.079 6.87599 58.7466 7.1646 58.7555 7.50624C58.7571 7.5708 58.7571 7.96687 58.7571 7.96687C58.3035 7.26292 57.5738 6.7731 57.0884 6.63108C55.7808 6.24772 54.4164 6.58738 53.3872 8.00937C52.5695 9.13898 52.0339 10.7244 51.882 12.2432C51.7408 13.6584 51.7668 14.8611 51.9595 15.8745C51.7517 16.8891 51.1538 17.9502 50.4781 17.9502C49.6138 17.9502 49.1222 17.1956 49.1222 13.7468C49.1222 11.7349 49.1833 10.8599 49.2135 9.40475C49.231 8.56673 49.2646 7.92297 49.2628 7.77697C49.2564 7.32906 48.472 7.10342 48.1069 7.0198C47.725 6.9324 47.3953 6.90062 47.142 6.91909C46.8081 6.94352 46.5731 7.23889 46.5731 7.45917V7.96687C46.1195 7.26292 45.3898 6.7731 44.9044 6.63108C43.5968 6.24772 42.2401 6.59294 41.2032 8.00937C40.5273 8.9328 39.9799 9.95654 39.6983 12.2229C39.6168 12.8778 39.5808 13.4914 39.5856 14.0644C39.316 15.6924 38.1251 17.5686 37.1512 17.5686C36.5813 17.5686 36.0384 16.477 36.0384 14.1508C36.0384 11.0522 36.2327 6.64021 36.2657 6.21515C36.2657 6.21515 37.4962 6.19449 37.7344 6.19171C38.3484 6.18495 38.9043 6.19945 39.722 6.15794C40.132 6.13748 40.5271 4.6841 40.1038 4.50434C39.9119 4.42291 38.5562 4.3518 38.0187 4.34047C37.5669 4.33054 36.3087 4.23838 36.3087 4.23838C36.3087 4.23838 36.4216 1.30997 36.4479 1.00071C36.4701 0.742685 36.1321 0.61 35.9386 0.529555C35.4674 0.332911 35.046 0.238561 34.5465 0.136863C33.856 -0.00376742 33.543 0.133883 33.4819 0.708918C33.3897 1.5819 33.3421 4.13886 33.3421 4.13886C32.8355 4.13886 31.105 4.04114 30.5985 4.04114C30.1277 4.04114 29.6196 6.04015 30.2706 6.06478C31.0193 6.09339 32.3243 6.11841 33.1894 6.14384C33.1894 6.14384 33.1507 10.6285 33.1507 12.0134C33.1507 12.1603 33.1515 12.3024 33.1523 12.44C32.6762 14.8901 30.9992 16.2138 30.9992 16.2138C31.3593 14.5928 30.6236 13.3754 29.2985 12.3449C28.8103 11.9653 27.8464 11.2464 26.7682 10.4587C26.7682 10.4587 27.3926 9.85087 27.9466 8.62811C28.3389 7.76168 28.356 6.77071 27.3926 6.55202C25.8009 6.19052 24.4887 7.34476 24.0972 8.57706C23.7938 9.53167 23.9556 10.2398 24.5498 10.9755C24.5931 11.0293 24.6404 11.0844 24.6886 11.1396C24.3296 11.8233 23.8359 12.7439 23.4178 13.4578C22.2575 15.4401 21.381 17.0077 20.7185 17.0077C20.189 17.0077 20.1961 15.4159 20.1961 13.9256C20.1961 12.6408 20.2922 10.7092 20.3691 8.70954C20.3944 8.04811 20.0593 7.6713 19.498 7.33006C19.1568 7.12269 18.4288 6.7151 18.0071 6.7151C17.3758 6.7151 15.5548 6.79991 13.8344 11.714C13.6176 12.3334 13.1915 13.462 13.1915 13.462L13.2283 7.55252C13.2283 7.41388 13.1534 7.28 12.9823 7.18843C12.6924 7.03291 11.9181 6.7151 11.2294 6.7151C10.9015 6.7151 10.7376 6.86566 10.7376 7.16599L10.6776 16.4114C10.6776 17.114 10.6961 17.9335 10.7665 18.2919C10.8366 18.6506 10.9502 18.9426 11.0906 19.1162C11.2313 19.2896 11.3936 19.4221 11.6614 19.4765C11.9106 19.5271 13.2754 19.7001 13.3464 19.1853C13.4313 18.568 13.4347 17.9006 14.1513 15.4109C15.267 11.5349 16.7214 9.6439 17.4054 8.97213C17.5251 8.85494 17.6615 8.84779 17.6549 9.03987C17.6259 9.88961 17.5231 12.0134 17.4541 13.8169C17.2688 18.6446 18.1582 19.5395 19.4294 19.5395C20.4019 19.5395 21.7727 18.5854 23.242 16.1705C24.0607 14.8247 24.8757 13.4766 25.6869 12.1264C26.1321 12.5334 26.632 12.9714 27.1313 13.4393C28.292 14.527 28.6731 15.5607 28.4202 16.5411C28.2271 17.2906 27.4986 18.063 26.2025 17.3124C25.8247 17.0933 25.6633 16.9239 25.2835 16.677C25.0795 16.5445 24.7679 16.5048 24.581 16.6438C24.0958 17.0049 23.8182 17.4646 23.6596 18.0334C23.5056 18.587 24.067 18.8796 24.6492 19.1356C25.1503 19.3559 26.2276 19.5555 26.9144 19.5782C29.591 19.6666 31.7353 18.3022 33.228 14.7827C33.4951 17.8223 34.6322 19.5422 36.6079 19.5422C37.9288 19.5422 39.2531 17.8565 39.8323 16.1981C39.9984 16.874 40.2447 17.462 40.5625 17.9592C42.0848 20.3407 45.038 19.8283 46.5214 17.8058C46.9801 17.1809 47.0499 16.9565 47.0499 16.9565C47.2664 18.8659 48.8238 19.5331 49.7154 19.5331C50.7142 19.5331 51.7453 19.0669 52.4681 17.4604C52.5528 17.6348 52.6453 17.8014 52.7463 17.9592C54.2685 20.3407 57.2219 19.8283 58.7054 17.8058C58.7754 17.7109 58.8362 17.6251 58.8891 17.5476L58.9325 18.8019L57.5668 20.0388C55.2774 22.1105 53.5385 23.6817 53.4106 25.5117C53.2476 27.845 55.1632 28.7122 56.6144 28.8258C58.1528 28.9464 59.4727 28.1066 60.2826 26.9313C60.9955 25.8966 61.4623 23.67 61.4279 21.4709C61.4144 20.5902 61.3916 19.4705 61.3741 18.2702C62.1778 17.3488 63.0833 16.184 63.917 14.821C64.8254 13.3354 65.7991 11.3404 66.2976 9.78771C66.2976 9.78771 67.1435 9.79506 68.0464 9.73666C68.3351 9.71799 68.4182 9.77639 68.3647 9.98515C68.3003 10.2378 67.224 14.3361 68.2063 17.0663C68.8785 18.9354 70.3939 19.5365 71.2923 19.5365C72.3442 19.5365 73.3503 18.7523 73.8894 17.5879C73.9546 17.7176 74.0224 17.8432 74.0967 17.9594C75.6189 20.3409 78.5619 19.8251 80.0558 17.8058C80.3929 17.3502 80.5842 16.9565 80.5842 16.9565C80.9047 18.9328 82.4614 19.5432 83.353 19.5432C84.2816 19.5432 85.1631 19.1672 85.8781 17.4965C85.9083 18.2323 85.9551 18.8337 86.0294 19.0232C86.0746 19.1394 86.3386 19.2848 86.5305 19.3551C87.3802 19.6662 88.2465 19.5192 88.5671 19.4552C88.7892 19.4107 88.9624 19.2348 88.9862 18.7807C89.0485 17.5879 89.0103 15.5839 89.3765 14.0944C89.991 11.595 90.5646 10.6255 90.8366 10.1456C90.9888 9.8765 91.1605 9.8322 91.1667 10.1168C91.1796 10.6929 91.2085 12.3838 91.4467 14.6561C91.6217 16.327 91.8551 17.3148 92.0347 17.6276C92.5473 18.5215 93.18 18.5638 93.6954 18.5638C94.0233 18.5638 94.7089 18.4744 94.6476 17.9055C94.6176 17.6282 94.6699 15.9145 95.276 13.452C95.6717 11.8439 96.3316 10.3911 96.5696 9.85981C96.6575 9.66396 96.6983 9.8183 96.6967 9.84849C96.6466 10.9559 96.5342 14.5781 96.991 16.5592C97.6106 19.2429 99.4023 19.5432 100.027 19.5432C101.36 19.5432 102.45 18.5421 102.817 15.9079C102.905 15.2739 102.775 14.7844 102.382 14.7844Z" fill="#343433"/>
</svg>