<svg width="24" height="22" viewBox="0 0 24 22" fill="none" xmlns="http://www.w3.org/2000/svg">
<path d="M6 3.66665C5.46957 3.66665 4.96086 3.8598 4.58579 4.20362C4.21071 4.54743 4 5.01375 4 5.49998V16.5C4 16.9862 4.21071 17.4525 4.58579 17.7963C4.96086 18.1402 5.46957 18.3333 6 18.3333H18C18.5304 18.3333 19.0391 18.1402 19.4142 17.7963C19.7893 17.4525 20 16.9862 20 16.5V5.49998C20 5.01375 19.7893 4.54743 19.4142 4.20362C19.0391 3.8598 18.5304 3.66665 18 3.66665H6ZM6 1.83331H18C19.0609 1.83331 20.0783 2.21962 20.8284 2.90725C21.5786 3.59489 22 4.52752 22 5.49998V16.5C22 17.4724 21.5786 18.4051 20.8284 19.0927C20.0783 19.7803 19.0609 20.1666 18 20.1666H6C4.93913 20.1666 3.92172 19.7803 3.17157 19.0927C2.42143 18.4051 2 17.4724 2 16.5V5.49998C2 4.52752 2.42143 3.59489 3.17157 2.90725C3.92172 2.21962 4.93913 1.83331 6 1.83331V1.83331ZM13 11.9166V15.5833C13 15.8264 12.8946 16.0596 12.7071 16.2315C12.5196 16.4034 12.2652 16.5 12 16.5C11.7348 16.5 11.4804 16.4034 11.2929 16.2315C11.1054 16.0596 11 15.8264 11 15.5833V11.9166H7C6.73478 11.9166 6.48043 11.8201 6.29289 11.6482C6.10536 11.4763 6 11.2431 6 11C6 10.7569 6.10536 10.5237 6.29289 10.3518C6.48043 10.1799 6.73478 10.0833 7 10.0833H11V6.41665C11 6.17353 11.1054 5.94037 11.2929 5.76847C11.4804 5.59656 11.7348 5.49998 12 5.49998C12.2652 5.49998 12.5196 5.59656 12.7071 5.76847C12.8946 5.94037 13 6.17353 13 6.41665V10.0833H17C17.2652 10.0833 17.5196 10.1799 17.7071 10.3518C17.8946 10.5237 18 10.7569 18 11C18 11.2431 17.8946 11.4763 17.7071 11.6482C17.5196 11.8201 17.2652 11.9166 17 11.9166H13Z" fill="black"/>
</svg>
